<svg width="86" height="45" fill="none" xmlns="http://www.w3.org/2000/svg"><path d="M58.5 35.82h2.102v6.302H58.5V35.82ZM54.3 30.05H60.602v-2.102h-8.403v2.101h2.1Zm2.101-8.404h2.1v-2.101H52.2v2.1H56.4Zm-2.101 2.1h-2.1v-2.1h-2.102v6.302h2.101v-2.1H58.5v-2.101H54.3ZM41.782 27.95v-4.202h4.202v-2.101h-4.202v-2.101h-2.1v2.1H37.58v2.102h2.101V30.049h6.303v-2.1h-4.202ZM30.848 13.374h6.17v2.057h-8.226v4.113h4.113v4.113h-2.057V21.6h-2.056v7.19h-2.057v3.078H24.68v2.057h-2.057v8.226h2.057v2.057h-4.113v-6.17h-2.057v-2.057h-2.056v2.057h-2.057v2.056h-2.057v2.057h2.057v2.057h-4.113v-8.227H8.226v-2.056H6.17v-2.057H4.113v-2.056H2.057v-2.057H0v-12.34h2.057v4.114h2.056v2.056H6.17v2.057h4.113v-2.057h2.056V19.53h3.078v-2.057h3.077v-2.056h2.057V2.057h2.056V0H39.06v2.057h2.056v9.247H30.834c.014.71.014 1.39.014 2.071ZM26.735 3.092H24.68V5.15h2.056V3.092ZM45.984 35.82v-2.101h-2.1V37.92h-4.202V33.72H37.58V40.022h6.303V44.223h2.101V40.022h2.101V37.92h-2.101v-2.1Zm0-7.872h2.101v-2.1h-2.101v2.1Zm4.113 7.872v6.302h2.101V35.82h-2.1Zm2.101 8.403h6.303v-2.1h-6.303v2.1Zm6.303-10.504h-6.303v2.1h6.303v-2.1Zm18.908-12.073h-2.1v8.403h2.1v-8.403Zm4.202 4.201v-4.201h-2.1v4.201h2.1Zm4.202 4.202v-8.403h-2.1v8.403h2.1Zm-2.1-10.504H81.61v2.1h2.101v-2.1Zm-12.606 4.202h-6.303v2.1h6.303v2.101h-6.303v2.101h8.403v-8.403h-2.1v2.1Zm-8.404 2.1v2.101h2.1v-2.1h-2.1Zm8.404 7.872h-2.101v4.201h-4.202V33.72h-2.101v6.303h6.303v4.201h2.1v-4.201h2.102V37.92h-2.101V33.72Zm-8.404-14.174v2.1h8.404v-2.1h-8.404ZM58.5 23.747h2.1v-2.101h-2.1v2.1Zm21.01-4.202h-2.102v2.1h2.101v-2.1Z" fill="#89D7D7"/></svg>